<?xml version="1.0" encoding="UTF-8" standalone="no"?>
<svg width="100mm" height="100mm" viewBox="0 0 100 100" version="1.1" id="svg5" xmlns="http://www.w3.org/2000/svg" xmlns:svg="http://www.w3.org/2000/svg">
<g id="checkers">
<rect width="14" height="14" x="1" y="1"></rect>
<rect width="14" height="14" x="29" y="1"></rect>
<rect width="14" height="14" x="57" y="1"></rect>
<rect width="14" height="14" x="85" y="1"></rect>
<rect width="14" height="14" x="15" y="15"></rect>
<rect width="14" height="14" x="43" y="15"></rect>
<rect width="14" height="14" x="71" y="15"></rect>
<rect width="14" height="14" x="1" y="29"></rect>
<rect width="14" height="14" x="29" y="29"></rect>
<rect width="14" height="14" x="57" y="29"></rect>
<rect width="14" height="14" x="85" y="29"></rect>
<rect width="14" height="14" x="15" y="43"></rect>
<rect width="14" height="14" x="43" y="43"></rect>
<rect width="14" height="14" x="71" y="43"></rect>
<rect width="14" height="14" x="1" y="57"></rect>
<rect width="14" height="14" x="29" y="57"></rect>
<rect width="14" height="14" x="57" y="57"></rect>
<rect width="14" height="14" x="85" y="57"></rect>
<rect width="14" height="14" x="15" y="71"></rect>
<rect width="14" height="14" x="43" y="71"></rect>
<rect width="14" height="14" x="71" y="71"></rect>
<rect width="14" height="14" x="1" y="85"></rect>
<rect width="14" height="14" x="29" y="85"></rect>
<rect width="14" height="14" x="57" y="85"></rect>
<rect width="14" height="14" x="85" y="85"></rect>

</g>
</svg>
